<mxfile host="app.diagrams.net" agent="Mozilla/5.0 (Windows NT 10.0; Win64; x64) AppleWebKit/537.36 (KHTML, like Gecko) Chrome/131.0.0.0 Safari/537.36" version="24.9.2">
  <diagram name="Page-1" id="6wDpLmk8982scS38s3aP">
    <mxGraphModel dx="1195" dy="615" grid="1" gridSize="10" guides="1" tooltips="1" connect="1" arrows="1" fold="1" page="1" pageScale="1" pageWidth="850" pageHeight="1100" math="0" shadow="0">
      <root>
        <mxCell id="0" />
        <mxCell id="1" parent="0" />
        <mxCell id="BCkSmg8Oph8lpSpjQLdP-124" value="&lt;font style=&quot;font-size: 14px;&quot;&gt;Conceptual model&lt;/font&gt;" style="text;html=1;align=center;verticalAlign=middle;whiteSpace=wrap;rounded=0;glass=0;fillColor=#2D4296;" parent="1" vertex="1">
          <mxGeometry x="355" y="50" width="140" height="30" as="geometry" />
        </mxCell>
        <mxCell id="FagbZrI9Zduc-99_X_yj-101" value="" style="group" vertex="1" connectable="0" parent="1">
          <mxGeometry x="40" y="90" width="782.0254430379746" height="390" as="geometry" />
        </mxCell>
        <mxCell id="BCkSmg8Oph8lpSpjQLdP-114" value="" style="group" parent="FagbZrI9Zduc-99_X_yj-101" vertex="1" connectable="0">
          <mxGeometry width="700" height="390" as="geometry" />
        </mxCell>
        <mxCell id="BCkSmg8Oph8lpSpjQLdP-86" style="edgeStyle=orthogonalEdgeStyle;rounded=0;orthogonalLoop=1;jettySize=auto;html=1;exitX=0.5;exitY=1;exitDx=0;exitDy=0;entryX=0.25;entryY=0;entryDx=0;entryDy=0;endArrow=none;endFill=0;" parent="BCkSmg8Oph8lpSpjQLdP-114" source="BCkSmg8Oph8lpSpjQLdP-70" target="BCkSmg8Oph8lpSpjQLdP-1" edge="1">
          <mxGeometry relative="1" as="geometry" />
        </mxCell>
        <mxCell id="BCkSmg8Oph8lpSpjQLdP-70" value="Name" style="ellipse;whiteSpace=wrap;html=1;container=0;" parent="BCkSmg8Oph8lpSpjQLdP-114" vertex="1">
          <mxGeometry x="62.02531645569619" width="62.02531645569619" height="33.19148936170213" as="geometry" />
        </mxCell>
        <mxCell id="BCkSmg8Oph8lpSpjQLdP-88" style="edgeStyle=orthogonalEdgeStyle;rounded=0;orthogonalLoop=1;jettySize=auto;html=1;exitX=1;exitY=0.5;exitDx=0;exitDy=0;entryX=0;entryY=0.25;entryDx=0;entryDy=0;endArrow=none;endFill=0;" parent="BCkSmg8Oph8lpSpjQLdP-114" source="BCkSmg8Oph8lpSpjQLdP-71" target="BCkSmg8Oph8lpSpjQLdP-1" edge="1">
          <mxGeometry relative="1" as="geometry">
            <Array as="points">
              <mxPoint x="35.44303797468354" y="41.48936170212767" />
              <mxPoint x="35.44303797468354" y="58.08510638297873" />
              <mxPoint x="81.51898734177215" y="58.08510638297873" />
            </Array>
          </mxGeometry>
        </mxCell>
        <mxCell id="BCkSmg8Oph8lpSpjQLdP-71" value="Email" style="ellipse;whiteSpace=wrap;html=1;container=0;" parent="BCkSmg8Oph8lpSpjQLdP-114" vertex="1">
          <mxGeometry y="24.893617021276594" width="62.02531645569619" height="33.19148936170213" as="geometry" />
        </mxCell>
        <mxCell id="BCkSmg8Oph8lpSpjQLdP-89" style="edgeStyle=orthogonalEdgeStyle;rounded=0;orthogonalLoop=1;jettySize=auto;html=1;exitX=0.5;exitY=1;exitDx=0;exitDy=0;endArrow=none;endFill=0;" parent="BCkSmg8Oph8lpSpjQLdP-114" source="BCkSmg8Oph8lpSpjQLdP-72" edge="1">
          <mxGeometry relative="1" as="geometry">
            <mxPoint x="81.51898734177215" y="99.57446808510637" as="targetPoint" />
            <Array as="points">
              <mxPoint x="70.88607594936708" y="99.57446808510637" />
            </Array>
          </mxGeometry>
        </mxCell>
        <mxCell id="BCkSmg8Oph8lpSpjQLdP-72" value="Password" style="ellipse;whiteSpace=wrap;html=1;container=0;" parent="BCkSmg8Oph8lpSpjQLdP-114" vertex="1">
          <mxGeometry x="8.984810126582278" y="66.38297872340426" width="62.02531645569619" height="33.19148936170213" as="geometry" />
        </mxCell>
        <mxCell id="BCkSmg8Oph8lpSpjQLdP-21" value="Review" style="whiteSpace=wrap;html=1;aspect=fixed;container=0;" parent="BCkSmg8Oph8lpSpjQLdP-114" vertex="1">
          <mxGeometry x="81.74960984914165" y="290.429436795995" width="49.693482581860025" height="49.693482581860025" as="geometry" />
        </mxCell>
        <mxCell id="BCkSmg8Oph8lpSpjQLdP-56" style="edgeStyle=orthogonalEdgeStyle;rounded=0;orthogonalLoop=1;jettySize=auto;html=1;exitX=0.25;exitY=1;exitDx=0;exitDy=0;entryX=0.25;entryY=0;entryDx=0;entryDy=0;endArrow=none;endFill=0;" parent="BCkSmg8Oph8lpSpjQLdP-114" source="BCkSmg8Oph8lpSpjQLdP-1" target="BCkSmg8Oph8lpSpjQLdP-21" edge="1">
          <mxGeometry relative="1" as="geometry">
            <Array as="points">
              <mxPoint x="96.58227848101265" y="232.34042553191492" />
              <mxPoint x="96.58227848101265" y="232.34042553191492" />
            </Array>
          </mxGeometry>
        </mxCell>
        <mxCell id="BCkSmg8Oph8lpSpjQLdP-38" style="edgeStyle=orthogonalEdgeStyle;rounded=0;orthogonalLoop=1;jettySize=auto;html=1;entryX=0.75;entryY=1;entryDx=0;entryDy=0;endArrow=none;endFill=0;" parent="BCkSmg8Oph8lpSpjQLdP-114" source="BCkSmg8Oph8lpSpjQLdP-21" target="BCkSmg8Oph8lpSpjQLdP-2" edge="1">
          <mxGeometry relative="1" as="geometry">
            <Array as="points">
              <mxPoint x="584" y="315" />
              <mxPoint x="584" y="100" />
            </Array>
          </mxGeometry>
        </mxCell>
        <mxCell id="BCkSmg8Oph8lpSpjQLdP-39" value="1" style="text;html=1;align=center;verticalAlign=middle;whiteSpace=wrap;rounded=0;container=0;" parent="BCkSmg8Oph8lpSpjQLdP-114" vertex="1">
          <mxGeometry x="133.03641408011094" y="290.42748435544434" width="47.33830414426911" height="21.23279098873592" as="geometry" />
        </mxCell>
        <mxCell id="BCkSmg8Oph8lpSpjQLdP-77" value="OrderDate" style="ellipse;whiteSpace=wrap;html=1;container=0;" parent="BCkSmg8Oph8lpSpjQLdP-114" vertex="1">
          <mxGeometry x="637.9746835443036" y="94.69446808510638" width="62.02531645569619" height="33.19148936170213" as="geometry" />
        </mxCell>
        <mxCell id="BCkSmg8Oph8lpSpjQLdP-109" style="edgeStyle=orthogonalEdgeStyle;rounded=0;orthogonalLoop=1;jettySize=auto;html=1;endArrow=none;endFill=0;" parent="BCkSmg8Oph8lpSpjQLdP-114" source="BCkSmg8Oph8lpSpjQLdP-78" edge="1">
          <mxGeometry relative="1" as="geometry">
            <mxPoint x="620.2531645569618" y="58.08510638297873" as="targetPoint" />
            <Array as="points">
              <mxPoint x="610" y="58" />
              <mxPoint x="610" y="58" />
            </Array>
          </mxGeometry>
        </mxCell>
        <mxCell id="BCkSmg8Oph8lpSpjQLdP-78" value="TotalPrice" style="ellipse;whiteSpace=wrap;html=1;container=0;" parent="BCkSmg8Oph8lpSpjQLdP-114" vertex="1">
          <mxGeometry x="637.9746835443035" y="41.48936170212767" width="62.02531645569619" height="33.19148936170213" as="geometry" />
        </mxCell>
        <mxCell id="BCkSmg8Oph8lpSpjQLdP-94" style="edgeStyle=orthogonalEdgeStyle;rounded=0;orthogonalLoop=1;jettySize=auto;html=1;endArrow=none;endFill=0;entryX=0.004;entryY=0.871;entryDx=0;entryDy=0;entryPerimeter=0;exitX=0.5;exitY=1;exitDx=0;exitDy=0;" parent="BCkSmg8Oph8lpSpjQLdP-114" source="BCkSmg8Oph8lpSpjQLdP-79" target="BCkSmg8Oph8lpSpjQLdP-21" edge="1">
          <mxGeometry relative="1" as="geometry">
            <mxPoint x="79.74683544303795" y="340.21276595744683" as="targetPoint" />
            <Array as="points">
              <mxPoint x="90" y="340" />
              <mxPoint x="82" y="340" />
            </Array>
          </mxGeometry>
        </mxCell>
        <mxCell id="BCkSmg8Oph8lpSpjQLdP-79" value="Title" style="ellipse;whiteSpace=wrap;html=1;container=0;" parent="BCkSmg8Oph8lpSpjQLdP-114" vertex="1">
          <mxGeometry x="8.984810126582314" y="307.12085106382983" width="62.02531645569619" height="33.19148936170213" as="geometry" />
        </mxCell>
        <mxCell id="BCkSmg8Oph8lpSpjQLdP-80" value="Description" style="ellipse;whiteSpace=wrap;html=1;container=0;" parent="BCkSmg8Oph8lpSpjQLdP-114" vertex="1">
          <mxGeometry x="40.30379746835442" y="356.80851063829795" width="62.02531645569619" height="33.19148936170213" as="geometry" />
        </mxCell>
        <mxCell id="BCkSmg8Oph8lpSpjQLdP-83" value="OrderID" style="ellipse;whiteSpace=wrap;html=1;container=0;" parent="BCkSmg8Oph8lpSpjQLdP-114" vertex="1">
          <mxGeometry x="584.8101265822785" width="62.02531645569619" height="33.19148936170213" as="geometry" />
        </mxCell>
        <mxCell id="FagbZrI9Zduc-99_X_yj-95" style="edgeStyle=orthogonalEdgeStyle;rounded=0;orthogonalLoop=1;jettySize=auto;html=1;exitX=0;exitY=0.5;exitDx=0;exitDy=0;entryX=1;entryY=0;entryDx=0;entryDy=0;endArrow=none;endFill=0;" edge="1" parent="BCkSmg8Oph8lpSpjQLdP-114" source="BCkSmg8Oph8lpSpjQLdP-85" target="BCkSmg8Oph8lpSpjQLdP-1">
          <mxGeometry relative="1" as="geometry" />
        </mxCell>
        <mxCell id="BCkSmg8Oph8lpSpjQLdP-85" value="UserID" style="ellipse;whiteSpace=wrap;html=1;container=0;" parent="BCkSmg8Oph8lpSpjQLdP-114" vertex="1">
          <mxGeometry x="132.03544303797472" width="62.02531645569619" height="33.19148936170213" as="geometry" />
        </mxCell>
        <mxCell id="BCkSmg8Oph8lpSpjQLdP-108" style="edgeStyle=orthogonalEdgeStyle;rounded=0;orthogonalLoop=1;jettySize=auto;html=1;exitX=0;exitY=0.5;exitDx=0;exitDy=0;endArrow=none;endFill=0;entryX=0.427;entryY=0;entryDx=0;entryDy=0;entryPerimeter=0;" parent="BCkSmg8Oph8lpSpjQLdP-114" source="BCkSmg8Oph8lpSpjQLdP-83" target="BCkSmg8Oph8lpSpjQLdP-2" edge="1">
          <mxGeometry relative="1" as="geometry">
            <mxPoint x="593.6708860759493" y="41.48936170212767" as="targetPoint" />
            <Array as="points">
              <mxPoint x="585" y="42" />
              <mxPoint x="585" y="50" />
            </Array>
          </mxGeometry>
        </mxCell>
        <mxCell id="BCkSmg8Oph8lpSpjQLdP-110" style="edgeStyle=orthogonalEdgeStyle;rounded=0;orthogonalLoop=1;jettySize=auto;html=1;exitX=0.5;exitY=0;exitDx=0;exitDy=0;entryX=1;entryY=0.901;entryDx=0;entryDy=0;entryPerimeter=0;endArrow=none;endFill=0;" parent="BCkSmg8Oph8lpSpjQLdP-114" source="BCkSmg8Oph8lpSpjQLdP-77" target="BCkSmg8Oph8lpSpjQLdP-2" edge="1">
          <mxGeometry relative="1" as="geometry">
            <Array as="points">
              <mxPoint x="640" y="95" />
              <mxPoint x="640" y="95" />
            </Array>
          </mxGeometry>
        </mxCell>
        <mxCell id="BCkSmg8Oph8lpSpjQLdP-60" style="edgeStyle=orthogonalEdgeStyle;rounded=0;orthogonalLoop=1;jettySize=auto;html=1;exitX=0.75;exitY=1;exitDx=0;exitDy=0;entryX=0;entryY=0.5;entryDx=0;entryDy=0;endArrow=none;endFill=0;" parent="BCkSmg8Oph8lpSpjQLdP-114" source="BCkSmg8Oph8lpSpjQLdP-1" target="BCkSmg8Oph8lpSpjQLdP-10" edge="1">
          <mxGeometry relative="1" as="geometry" />
        </mxCell>
        <mxCell id="BCkSmg8Oph8lpSpjQLdP-1" value="User" style="whiteSpace=wrap;html=1;aspect=fixed;container=0;" parent="BCkSmg8Oph8lpSpjQLdP-114" vertex="1">
          <mxGeometry x="81.74960984914165" y="49.78723404255319" width="49.693482581860025" height="49.693482581860025" as="geometry" />
        </mxCell>
        <mxCell id="BCkSmg8Oph8lpSpjQLdP-4" style="edgeStyle=orthogonalEdgeStyle;rounded=0;orthogonalLoop=1;jettySize=auto;html=1;entryX=0;entryY=0.5;entryDx=0;entryDy=0;endArrow=none;endFill=0;" parent="BCkSmg8Oph8lpSpjQLdP-114" source="BCkSmg8Oph8lpSpjQLdP-1" target="BCkSmg8Oph8lpSpjQLdP-2" edge="1">
          <mxGeometry relative="1" as="geometry">
            <Array as="points">
              <mxPoint x="559.0775099705219" y="78.09762202753444" />
            </Array>
          </mxGeometry>
        </mxCell>
        <mxCell id="BCkSmg8Oph8lpSpjQLdP-42" value="Has" style="rhombus;whiteSpace=wrap;html=1;container=0;" parent="BCkSmg8Oph8lpSpjQLdP-114" vertex="1">
          <mxGeometry x="310.5514132131091" y="56.86483103879849" width="47.33830414426911" height="42.46558197747184" as="geometry" />
        </mxCell>
        <mxCell id="BCkSmg8Oph8lpSpjQLdP-5" value="1" style="text;html=1;align=center;verticalAlign=middle;whiteSpace=wrap;rounded=0;container=0;" parent="BCkSmg8Oph8lpSpjQLdP-114" vertex="1">
          <mxGeometry x="133.03277267209987" y="56.86483103879849" width="47.33830414426911" height="21.23279098873592" as="geometry" />
        </mxCell>
        <mxCell id="BCkSmg8Oph8lpSpjQLdP-36" value="1" style="text;html=1;align=center;verticalAlign=middle;whiteSpace=wrap;rounded=0;container=0;" parent="BCkSmg8Oph8lpSpjQLdP-114" vertex="1">
          <mxGeometry x="62.02531645569619" y="104.63861076345435" width="47.33830414426911" height="21.23279098873592" as="geometry" />
        </mxCell>
        <mxCell id="FagbZrI9Zduc-99_X_yj-100" style="edgeStyle=orthogonalEdgeStyle;rounded=0;orthogonalLoop=1;jettySize=auto;html=1;exitX=0.5;exitY=1;exitDx=0;exitDy=0;entryX=0.5;entryY=0;entryDx=0;entryDy=0;endArrow=none;endFill=0;" edge="1" parent="BCkSmg8Oph8lpSpjQLdP-114" source="BCkSmg8Oph8lpSpjQLdP-16" target="BCkSmg8Oph8lpSpjQLdP-75">
          <mxGeometry relative="1" as="geometry" />
        </mxCell>
        <mxCell id="BCkSmg8Oph8lpSpjQLdP-16" value="&lt;font style=&quot;font-size: 10px;&quot;&gt;Category&lt;/font&gt;" style="whiteSpace=wrap;html=1;aspect=fixed;container=0;" parent="BCkSmg8Oph8lpSpjQLdP-114" vertex="1">
          <mxGeometry x="480.18033639674" y="163.02878598247813" width="49.693482581860025" height="49.693482581860025" as="geometry" />
        </mxCell>
        <mxCell id="BCkSmg8Oph8lpSpjQLdP-18" value="N" style="text;html=1;align=center;verticalAlign=middle;whiteSpace=wrap;rounded=0;container=0;" parent="BCkSmg8Oph8lpSpjQLdP-114" vertex="1">
          <mxGeometry x="322.3859892491763" y="141.79599499374217" width="47.33830414426911" height="21.23279098873592" as="geometry" />
        </mxCell>
        <mxCell id="BCkSmg8Oph8lpSpjQLdP-19" value="1" style="text;html=1;align=center;verticalAlign=middle;whiteSpace=wrap;rounded=0;container=0;" parent="BCkSmg8Oph8lpSpjQLdP-114" vertex="1">
          <mxGeometry x="564.73" y="100" width="47.34" height="27.89" as="geometry" />
        </mxCell>
        <mxCell id="BCkSmg8Oph8lpSpjQLdP-17" style="edgeStyle=orthogonalEdgeStyle;rounded=0;orthogonalLoop=1;jettySize=auto;html=1;entryX=0;entryY=0.5;entryDx=0;entryDy=0;endArrow=none;endFill=0;" parent="BCkSmg8Oph8lpSpjQLdP-114" source="BCkSmg8Oph8lpSpjQLdP-10" target="BCkSmg8Oph8lpSpjQLdP-16" edge="1">
          <mxGeometry relative="1" as="geometry" />
        </mxCell>
        <mxCell id="BCkSmg8Oph8lpSpjQLdP-59" style="edgeStyle=orthogonalEdgeStyle;rounded=0;orthogonalLoop=1;jettySize=auto;html=1;exitX=0.5;exitY=0;exitDx=0;exitDy=0;entryX=0.25;entryY=1;entryDx=0;entryDy=0;endArrow=none;endFill=0;" parent="BCkSmg8Oph8lpSpjQLdP-114" source="BCkSmg8Oph8lpSpjQLdP-10" target="BCkSmg8Oph8lpSpjQLdP-2" edge="1">
          <mxGeometry relative="1" as="geometry" />
        </mxCell>
        <mxCell id="BCkSmg8Oph8lpSpjQLdP-139" style="edgeStyle=orthogonalEdgeStyle;rounded=0;orthogonalLoop=1;jettySize=auto;html=1;exitX=0.25;exitY=1;exitDx=0;exitDy=0;entryX=1;entryY=0.5;entryDx=0;entryDy=0;endArrow=none;endFill=0;" parent="BCkSmg8Oph8lpSpjQLdP-114" source="BCkSmg8Oph8lpSpjQLdP-10" target="BCkSmg8Oph8lpSpjQLdP-138" edge="1">
          <mxGeometry relative="1" as="geometry">
            <Array as="points">
              <mxPoint x="314" y="213" />
            </Array>
          </mxGeometry>
        </mxCell>
        <mxCell id="FagbZrI9Zduc-99_X_yj-97" style="edgeStyle=orthogonalEdgeStyle;rounded=0;orthogonalLoop=1;jettySize=auto;html=1;exitX=1;exitY=1;exitDx=0;exitDy=0;entryX=0;entryY=0.5;entryDx=0;entryDy=0;endArrow=none;endFill=0;" edge="1" parent="BCkSmg8Oph8lpSpjQLdP-114" source="BCkSmg8Oph8lpSpjQLdP-10" target="BCkSmg8Oph8lpSpjQLdP-74">
          <mxGeometry relative="1" as="geometry">
            <Array as="points">
              <mxPoint x="348" y="236" />
            </Array>
          </mxGeometry>
        </mxCell>
        <mxCell id="BCkSmg8Oph8lpSpjQLdP-10" value="Listing" style="whiteSpace=wrap;html=1;aspect=fixed;container=0;" parent="BCkSmg8Oph8lpSpjQLdP-114" vertex="1">
          <mxGeometry x="298.7168371770418" y="163.02878598247813" width="49.693482581860025" height="49.693482581860025" as="geometry" />
        </mxCell>
        <mxCell id="BCkSmg8Oph8lpSpjQLdP-13" value="N" style="text;html=1;align=center;verticalAlign=middle;whiteSpace=wrap;rounded=0;container=0;" parent="BCkSmg8Oph8lpSpjQLdP-114" vertex="1">
          <mxGeometry x="353.94485867868906" y="170.10638297872342" width="47.33830414426911" height="21.23279098873592" as="geometry" />
        </mxCell>
        <mxCell id="BCkSmg8Oph8lpSpjQLdP-37" value="N" style="text;html=1;align=center;verticalAlign=middle;whiteSpace=wrap;rounded=0;container=0;" parent="BCkSmg8Oph8lpSpjQLdP-114" vertex="1">
          <mxGeometry x="62.02531645569619" y="257.2311138923655" width="47.33830414426911" height="21.23279098873592" as="geometry" />
        </mxCell>
        <mxCell id="BCkSmg8Oph8lpSpjQLdP-40" value="1" style="text;html=1;align=center;verticalAlign=middle;whiteSpace=wrap;rounded=0;container=0;" parent="BCkSmg8Oph8lpSpjQLdP-114" vertex="1">
          <mxGeometry x="440.73174960984915" y="170.10638297872342" width="47.33830414426911" height="21.23279098873592" as="geometry" />
        </mxCell>
        <mxCell id="BCkSmg8Oph8lpSpjQLdP-45" value="&lt;font style=&quot;font-size: 8px;&quot;&gt;Contains&lt;/font&gt;" style="rhombus;whiteSpace=wrap;html=1;container=0;" parent="BCkSmg8Oph8lpSpjQLdP-114" vertex="1">
          <mxGeometry x="417.0625975377145" y="113.48560700876094" width="47.33830414426911" height="42.46558197747184" as="geometry" />
        </mxCell>
        <mxCell id="BCkSmg8Oph8lpSpjQLdP-12" value="1" style="text;html=1;align=center;verticalAlign=middle;whiteSpace=wrap;rounded=0;container=0;" parent="BCkSmg8Oph8lpSpjQLdP-114" vertex="1">
          <mxGeometry x="541.4283578983873" y="104.63801001251568" width="47.33830414426911" height="21.23279098873592" as="geometry" />
        </mxCell>
        <mxCell id="FagbZrI9Zduc-99_X_yj-8" style="edgeStyle=orthogonalEdgeStyle;rounded=0;orthogonalLoop=1;jettySize=auto;html=1;exitX=1;exitY=1;exitDx=0;exitDy=0;entryX=0;entryY=0.5;entryDx=0;entryDy=0;endArrow=none;endFill=0;" edge="1" parent="BCkSmg8Oph8lpSpjQLdP-114" source="BCkSmg8Oph8lpSpjQLdP-2" target="FagbZrI9Zduc-99_X_yj-5">
          <mxGeometry relative="1" as="geometry">
            <Array as="points">
              <mxPoint x="600" y="100" />
              <mxPoint x="600" y="208" />
            </Array>
          </mxGeometry>
        </mxCell>
        <mxCell id="BCkSmg8Oph8lpSpjQLdP-2" value="Order" style="whiteSpace=wrap;html=1;aspect=fixed;container=0;" parent="BCkSmg8Oph8lpSpjQLdP-114" vertex="1">
          <mxGeometry x="559.0775099705219" y="49.78723404255319" width="49.693482581860025" height="49.693482581860025" as="geometry" />
        </mxCell>
        <mxCell id="BCkSmg8Oph8lpSpjQLdP-6" value="N" style="text;html=1;align=center;verticalAlign=middle;whiteSpace=wrap;rounded=0;container=0;" parent="BCkSmg8Oph8lpSpjQLdP-114" vertex="1">
          <mxGeometry x="513.9225940697067" y="74.68036295369211" width="47.33830414426911" height="21.23279098873592" as="geometry" />
        </mxCell>
        <mxCell id="BCkSmg8Oph8lpSpjQLdP-61" value="1" style="text;html=1;align=center;verticalAlign=middle;whiteSpace=wrap;rounded=0;container=0;" parent="BCkSmg8Oph8lpSpjQLdP-114" vertex="1">
          <mxGeometry x="117.25333795734348" y="106.40801001251567" width="47.33830414426911" height="21.23279098873592" as="geometry" />
        </mxCell>
        <mxCell id="BCkSmg8Oph8lpSpjQLdP-62" value="N" style="text;html=1;align=center;verticalAlign=middle;whiteSpace=wrap;rounded=0;container=0;" parent="BCkSmg8Oph8lpSpjQLdP-114" vertex="1">
          <mxGeometry x="259.2682503901508" y="170.10638297872342" width="47.33830414426911" height="21.23279098873592" as="geometry" />
        </mxCell>
        <mxCell id="BCkSmg8Oph8lpSpjQLdP-63" value="Has" style="rhombus;whiteSpace=wrap;html=1;container=0;" parent="BCkSmg8Oph8lpSpjQLdP-114" vertex="1">
          <mxGeometry x="164.59164210161262" y="170.10638297872342" width="47.33830414426911" height="42.46558197747184" as="geometry" />
        </mxCell>
        <mxCell id="BCkSmg8Oph8lpSpjQLdP-97" style="edgeStyle=orthogonalEdgeStyle;rounded=0;orthogonalLoop=1;jettySize=auto;html=1;entryX=0.75;entryY=1;entryDx=0;entryDy=0;endArrow=none;endFill=0;exitX=0;exitY=0.5;exitDx=0;exitDy=0;" parent="BCkSmg8Oph8lpSpjQLdP-114" source="BCkSmg8Oph8lpSpjQLdP-73" target="BCkSmg8Oph8lpSpjQLdP-10" edge="1">
          <mxGeometry relative="1" as="geometry">
            <Array as="points">
              <mxPoint x="336" y="282" />
            </Array>
          </mxGeometry>
        </mxCell>
        <mxCell id="BCkSmg8Oph8lpSpjQLdP-73" value="Quantity" style="ellipse;whiteSpace=wrap;html=1;container=0;" parent="BCkSmg8Oph8lpSpjQLdP-114" vertex="1">
          <mxGeometry x="336.2592405063291" y="265.53191489361706" width="62.02531645569619" height="33.19148936170213" as="geometry" />
        </mxCell>
        <mxCell id="BCkSmg8Oph8lpSpjQLdP-74" value="Price" style="ellipse;whiteSpace=wrap;html=1;container=0;" parent="BCkSmg8Oph8lpSpjQLdP-114" vertex="1">
          <mxGeometry x="369.7240506329113" y="219.65297872340426" width="62.02531645569619" height="33.19148936170213" as="geometry" />
        </mxCell>
        <mxCell id="BCkSmg8Oph8lpSpjQLdP-75" value="Name" style="ellipse;whiteSpace=wrap;html=1;container=0;" parent="BCkSmg8Oph8lpSpjQLdP-114" vertex="1">
          <mxGeometry x="474.0225316455697" y="265.53191489361706" width="62.02531645569619" height="33.19148936170213" as="geometry" />
        </mxCell>
        <mxCell id="BCkSmg8Oph8lpSpjQLdP-102" style="edgeStyle=orthogonalEdgeStyle;rounded=0;orthogonalLoop=1;jettySize=auto;html=1;entryX=1;entryY=1;entryDx=0;entryDy=0;endArrow=none;endFill=0;" parent="BCkSmg8Oph8lpSpjQLdP-114" source="BCkSmg8Oph8lpSpjQLdP-76" target="BCkSmg8Oph8lpSpjQLdP-16" edge="1">
          <mxGeometry relative="1" as="geometry" />
        </mxCell>
        <mxCell id="BCkSmg8Oph8lpSpjQLdP-76" value="Description" style="ellipse;whiteSpace=wrap;html=1;container=0;" parent="BCkSmg8Oph8lpSpjQLdP-114" vertex="1">
          <mxGeometry x="518.1063291139241" y="232.34042553191492" width="62.02531645569619" height="33.19148936170213" as="geometry" />
        </mxCell>
        <mxCell id="BCkSmg8Oph8lpSpjQLdP-96" style="edgeStyle=orthogonalEdgeStyle;rounded=0;orthogonalLoop=1;jettySize=auto;html=1;entryX=0;entryY=1;entryDx=0;entryDy=0;endArrow=none;endFill=0;" parent="BCkSmg8Oph8lpSpjQLdP-114" source="BCkSmg8Oph8lpSpjQLdP-81" target="BCkSmg8Oph8lpSpjQLdP-10" edge="1">
          <mxGeometry relative="1" as="geometry" />
        </mxCell>
        <mxCell id="BCkSmg8Oph8lpSpjQLdP-81" value="ListingID" style="ellipse;whiteSpace=wrap;html=1;container=0;" parent="BCkSmg8Oph8lpSpjQLdP-114" vertex="1">
          <mxGeometry x="212.6582278481013" y="219.65297872340426" width="62.02531645569619" height="33.19148936170213" as="geometry" />
        </mxCell>
        <mxCell id="BCkSmg8Oph8lpSpjQLdP-101" style="edgeStyle=orthogonalEdgeStyle;rounded=0;orthogonalLoop=1;jettySize=auto;html=1;entryX=0;entryY=1;entryDx=0;entryDy=0;endArrow=none;endFill=0;" parent="BCkSmg8Oph8lpSpjQLdP-114" source="BCkSmg8Oph8lpSpjQLdP-82" target="BCkSmg8Oph8lpSpjQLdP-16" edge="1">
          <mxGeometry relative="1" as="geometry" />
        </mxCell>
        <mxCell id="BCkSmg8Oph8lpSpjQLdP-82" value="CategoryID" style="ellipse;whiteSpace=wrap;html=1;container=0;" parent="BCkSmg8Oph8lpSpjQLdP-114" vertex="1">
          <mxGeometry x="433.3841772151898" y="232.34042553191492" width="62.02531645569619" height="33.19148936170213" as="geometry" />
        </mxCell>
        <mxCell id="BCkSmg8Oph8lpSpjQLdP-115" value="&lt;span style=&quot;color: rgba(0, 0, 0, 0); font-family: monospace; font-size: 0px; text-align: start; text-wrap-mode: nowrap;&quot;&gt;%3CmxGraphModel%3E%3Croot%3E%3CmxCell%20id%3D%220%22%2F%3E%3CmxCell%20id%3D%221%22%20parent%3D%220%22%2F%3E%3CmxCell%20id%3D%222%22%20value%3D%22%22%20style%3D%22whiteSpace%3Dwrap%3Bhtml%3D1%3Baspect%3Dfixed%3BfillColor%3Dnone%3B%22%20vertex%3D%221%22%20parent%3D%221%22%3E%3CmxGeometry%20x%3D%22342.36455696202523%22%20y%3D%22256.44702127659576%22%20width%3D%2243.69599330473899%22%20height%3D%2243.69599330473899%22%20as%3D%22geometry%22%2F%3E%3C%2FmxCell%3E%3C%2Froot%3E%3C%2FmxGraphModel%3E&lt;/span&gt;&lt;span style=&quot;color: rgba(0, 0, 0, 0); font-family: monospace; font-size: 0px; text-align: start; text-wrap-mode: nowrap;&quot;&gt;%3CmxGraphModel%3E%3Croot%3E%3CmxCell%20id%3D%220%22%2F%3E%3CmxCell%20id%3D%221%22%20parent%3D%220%22%2F%3E%3CmxCell%20id%3D%222%22%20value%3D%22%22%20style%3D%22whiteSpace%3Dwrap%3Bhtml%3D1%3Baspect%3Dfixed%3BfillColor%3Dnone%3B%22%20vertex%3D%221%22%20parent%3D%221%22%3E%3CmxGeometry%20x%3D%22342.36455696202523%22%20y%3D%22256.44702127659576%22%20width%3D%2243.69599330473899%22%20height%3D%2243.69599330473899%22%20as%3D%22geometry%22%2F%3E%3C%2FmxCell%3E%3C%2Froot%3E%3C%2FmxGraphModel%3E&lt;/span&gt;" style="whiteSpace=wrap;html=1;aspect=fixed;fillColor=none;" parent="BCkSmg8Oph8lpSpjQLdP-114" vertex="1">
          <mxGeometry x="302.36455696202523" y="166.44702127659576" width="43.69599330473899" height="43.69599330473899" as="geometry" />
        </mxCell>
        <mxCell id="BCkSmg8Oph8lpSpjQLdP-117" value="" style="whiteSpace=wrap;html=1;aspect=fixed;fillColor=none;" parent="BCkSmg8Oph8lpSpjQLdP-114" vertex="1">
          <mxGeometry x="483.1829113924049" y="166.02702127659578" width="43.69599330473899" height="43.69599330473899" as="geometry" />
        </mxCell>
        <mxCell id="BCkSmg8Oph8lpSpjQLdP-118" value="" style="whiteSpace=wrap;html=1;aspect=fixed;fillColor=none;" parent="BCkSmg8Oph8lpSpjQLdP-114" vertex="1">
          <mxGeometry x="562.7291139240505" y="53.2059574468085" width="43.69599330473899" height="43.69599330473899" as="geometry" />
        </mxCell>
        <mxCell id="BCkSmg8Oph8lpSpjQLdP-119" value="" style="whiteSpace=wrap;html=1;aspect=fixed;fillColor=none;" parent="BCkSmg8Oph8lpSpjQLdP-114" vertex="1">
          <mxGeometry x="85.39999999999999" y="293.844255319149" width="43.69599330473899" height="43.69599330473899" as="geometry" />
        </mxCell>
        <mxCell id="BCkSmg8Oph8lpSpjQLdP-120" value="" style="rhombus;whiteSpace=wrap;html=1;container=0;fillColor=none;" parent="BCkSmg8Oph8lpSpjQLdP-114" vertex="1">
          <mxGeometry x="170.54303797468353" y="174.74489361702126" width="35.44303797468354" height="33.19148936170213" as="geometry" />
        </mxCell>
        <mxCell id="BCkSmg8Oph8lpSpjQLdP-122" value="" style="rhombus;whiteSpace=wrap;html=1;container=0;fillColor=none;" parent="BCkSmg8Oph8lpSpjQLdP-114" vertex="1">
          <mxGeometry x="423.012658227848" y="118.12021276595743" width="35.44303797468354" height="33.19148936170213" as="geometry" />
        </mxCell>
        <mxCell id="BCkSmg8Oph8lpSpjQLdP-123" value="" style="rhombus;whiteSpace=wrap;html=1;container=0;fillColor=none;" parent="BCkSmg8Oph8lpSpjQLdP-114" vertex="1">
          <mxGeometry x="316.49746835443034" y="61.503829787234025" width="35.44303797468354" height="33.19148936170213" as="geometry" />
        </mxCell>
        <mxCell id="BCkSmg8Oph8lpSpjQLdP-131" style="edgeStyle=orthogonalEdgeStyle;rounded=0;orthogonalLoop=1;jettySize=auto;html=1;exitX=1;exitY=0.5;exitDx=0;exitDy=0;entryX=0.4;entryY=0.992;entryDx=0;entryDy=0;entryPerimeter=0;endArrow=none;endFill=0;" parent="BCkSmg8Oph8lpSpjQLdP-114" source="BCkSmg8Oph8lpSpjQLdP-80" target="BCkSmg8Oph8lpSpjQLdP-21" edge="1">
          <mxGeometry relative="1" as="geometry" />
        </mxCell>
        <mxCell id="BCkSmg8Oph8lpSpjQLdP-132" value="ReviewID" style="ellipse;whiteSpace=wrap;html=1;container=0;" parent="BCkSmg8Oph8lpSpjQLdP-114" vertex="1">
          <mxGeometry x="117.68987341772149" y="356.80851063829795" width="62.02531645569619" height="33.19148936170213" as="geometry" />
        </mxCell>
        <mxCell id="BCkSmg8Oph8lpSpjQLdP-133" style="edgeStyle=orthogonalEdgeStyle;rounded=0;orthogonalLoop=1;jettySize=auto;html=1;exitX=0;exitY=0.5;exitDx=0;exitDy=0;entryX=0.722;entryY=0.996;entryDx=0;entryDy=0;entryPerimeter=0;endArrow=none;endFill=0;" parent="BCkSmg8Oph8lpSpjQLdP-114" source="BCkSmg8Oph8lpSpjQLdP-132" target="BCkSmg8Oph8lpSpjQLdP-21" edge="1">
          <mxGeometry relative="1" as="geometry" />
        </mxCell>
        <mxCell id="BCkSmg8Oph8lpSpjQLdP-138" value="Title" style="ellipse;whiteSpace=wrap;html=1;container=0;" parent="BCkSmg8Oph8lpSpjQLdP-114" vertex="1">
          <mxGeometry x="251.92911392405068" y="265.53191489361706" width="62.02531645569619" height="33.19148936170213" as="geometry" />
        </mxCell>
        <mxCell id="FagbZrI9Zduc-99_X_yj-7" value="&lt;font style=&quot;font-size: 8px;&quot;&gt;OrderDetail&lt;/font&gt;" style="whiteSpace=wrap;html=1;aspect=fixed;container=0;" vertex="1" parent="BCkSmg8Oph8lpSpjQLdP-114">
          <mxGeometry x="644.1368371770417" y="182.6487859824781" width="49.693482581860025" height="49.693482581860025" as="geometry" />
        </mxCell>
        <mxCell id="FagbZrI9Zduc-99_X_yj-5" value="" style="whiteSpace=wrap;html=1;aspect=fixed;fillColor=none;" vertex="1" parent="BCkSmg8Oph8lpSpjQLdP-114">
          <mxGeometry x="647.1345569620252" y="185.64702127659575" width="43.69599330473899" height="43.69599330473899" as="geometry" />
        </mxCell>
        <mxCell id="FagbZrI9Zduc-99_X_yj-81" value="1" style="text;html=1;align=center;verticalAlign=middle;whiteSpace=wrap;rounded=0;container=0;" vertex="1" parent="BCkSmg8Oph8lpSpjQLdP-114">
          <mxGeometry x="592" y="103.33" width="26.1" height="21.23" as="geometry" />
        </mxCell>
        <mxCell id="FagbZrI9Zduc-99_X_yj-82" value="N" style="text;html=1;align=center;verticalAlign=middle;whiteSpace=wrap;rounded=0;container=0;" vertex="1" parent="BCkSmg8Oph8lpSpjQLdP-114">
          <mxGeometry x="599.4925940697067" y="184.3803629536921" width="47.33830414426911" height="21.23279098873592" as="geometry" />
        </mxCell>
        <mxCell id="FagbZrI9Zduc-99_X_yj-88" style="edgeStyle=orthogonalEdgeStyle;rounded=0;orthogonalLoop=1;jettySize=auto;html=1;entryX=1.004;entryY=0.154;entryDx=0;entryDy=0;endArrow=none;endFill=0;entryPerimeter=0;exitX=0.5;exitY=1;exitDx=0;exitDy=0;" edge="1" parent="FagbZrI9Zduc-99_X_yj-101" source="FagbZrI9Zduc-99_X_yj-84">
          <mxGeometry relative="1" as="geometry">
            <mxPoint x="733.5182488401929" y="193.29885057471267" as="sourcePoint" />
            <mxPoint x="694.0290936892291" y="193.3015823000846" as="targetPoint" />
            <Array as="points">
              <mxPoint x="700" y="193" />
              <mxPoint x="695" y="193" />
            </Array>
          </mxGeometry>
        </mxCell>
        <mxCell id="FagbZrI9Zduc-99_X_yj-84" value="&lt;font style=&quot;font-size: 9px;&quot;&gt;OrderDetailID&lt;/font&gt;" style="ellipse;whiteSpace=wrap;html=1;container=0;" vertex="1" parent="FagbZrI9Zduc-99_X_yj-101">
          <mxGeometry x="720.0001265822784" y="160" width="62.02531645569619" height="33.19148936170213" as="geometry" />
        </mxCell>
        <mxCell id="FagbZrI9Zduc-99_X_yj-86" value="OrderID" style="ellipse;whiteSpace=wrap;html=1;container=0;" vertex="1" parent="FagbZrI9Zduc-99_X_yj-101">
          <mxGeometry x="584.8101265822785" width="62.02531645569619" height="33.19148936170213" as="geometry" />
        </mxCell>
        <mxCell id="FagbZrI9Zduc-99_X_yj-89" style="edgeStyle=orthogonalEdgeStyle;rounded=0;orthogonalLoop=1;jettySize=auto;html=1;exitX=0.5;exitY=0;exitDx=0;exitDy=0;entryX=1;entryY=1;entryDx=0;entryDy=0;endArrow=none;endFill=0;" edge="1" parent="FagbZrI9Zduc-99_X_yj-101" source="FagbZrI9Zduc-99_X_yj-87" target="FagbZrI9Zduc-99_X_yj-7">
          <mxGeometry relative="1" as="geometry">
            <Array as="points">
              <mxPoint x="751" y="220" />
              <mxPoint x="694" y="220" />
            </Array>
          </mxGeometry>
        </mxCell>
        <mxCell id="FagbZrI9Zduc-99_X_yj-87" value="Quantity" style="ellipse;whiteSpace=wrap;html=1;container=0;" vertex="1" parent="FagbZrI9Zduc-99_X_yj-101">
          <mxGeometry x="720.0001265822784" y="220" width="62.02531645569619" height="33.19148936170213" as="geometry" />
        </mxCell>
      </root>
    </mxGraphModel>
  </diagram>
</mxfile>
